# Blender v2.75 (sub 0) OBJ File: ''
# www.blender.org
mtllib test.mtl
o Cube
v 0.815944 -0.908835 -0.573781
v 0.532932 -0.093770 1.425888
v -1.312803 -0.908835 0.587463
v -0.454980 -0.096608 -1.011457
v 0.815945 1.091165 -0.573780
v -0.810261 0.463476 0.556229
vn 0.215200 -0.893300 0.394600
vn 0.024500 0.858500 0.512200
vn 0.990100 -0.000000 0.140100
vn -0.475300 0.193600 0.858200
vn 0.325600 0.000000 -0.945500
vn -0.554200 0.736100 -0.388600
vn -0.893000 0.319800 -0.316600
vn -0.303200 -0.774000 -0.555900
usemtl Material
s off
f 2//1 3//1 1//1
f 2//2 5//2 6//2
f 2//3 1//3 5//3
f 2//4 6//4 3//4
f 4//5 5//5 1//5
f 6//6 5//6 4//6
f 6//7 4//7 3//7
f 4//8 1//8 3//8
